<mxfile host="app.diagrams.net" modified="2022-09-12T10:22:56.344Z" agent="5.0 (Windows NT 10.0; Win64; x64) AppleWebKit/537.36 (KHTML, like Gecko) Chrome/104.0.0.0 Safari/537.36" etag="0j8_IVXCH4guUD0TI4ag" version="20.2.7" type="github">
  <diagram id="vN7KTQpEj-ZxnZyZhrOD" name="Page-1">
    <mxGraphModel dx="500" dy="686" grid="1" gridSize="10" guides="1" tooltips="1" connect="1" arrows="1" fold="1" page="1" pageScale="1" pageWidth="1100" pageHeight="850" math="0" shadow="0">
      <root>
        <mxCell id="0" />
        <mxCell id="1" parent="0" />
        <mxCell id="Bbwd_QznS_sV6y0Ex78K-1" value="&lt;h1&gt;Class Photos&lt;/h1&gt;&lt;p&gt;&lt;/p&gt;&lt;ul&gt;&lt;li&gt;Photo data at local school&lt;/li&gt;&lt;li&gt;You&#39;re the photographer assigned to take class photos&lt;/li&gt;&lt;li&gt;Class that you&#39;ll be photographing has an &lt;i style=&quot;font-weight: bold;&quot;&gt;even &lt;/i&gt;number of students, and all of these students are wearing either red or blue shirts&lt;/li&gt;&lt;ul&gt;&lt;li&gt;Exactly 1/2 of the class is wearing red shirts&lt;/li&gt;&lt;li&gt;1/2 of the class is wearing blue shirts&lt;/li&gt;&lt;/ul&gt;&lt;li&gt;Arrange students in two rows before taking the photo&lt;/li&gt;&lt;li&gt;Each row should contain the same number of students and should adhere to the following guidelines&lt;/li&gt;&lt;ul&gt;&lt;li&gt;All students wearing red shirts must be in the same row&lt;/li&gt;&lt;li&gt;All students wearing blue shirts must be in the same row&lt;/li&gt;&lt;li&gt;Each student in the back row must be strictly taller than the student directly in front of them in the same row&lt;/li&gt;&lt;/ul&gt;&lt;li&gt;Given two input arrays&lt;/li&gt;&lt;ul&gt;&lt;li&gt;One containing the heights of all the students with blue shirts&lt;/li&gt;&lt;li&gt;These arrays will always have the same length, and each height will be a positive integer&lt;/li&gt;&lt;/ul&gt;&lt;li&gt;Write a function that returns whether or not a class photo that follows the stated guideline can be token&lt;/li&gt;&lt;li&gt;NOTE: You can assume that each class has at least 2 students&lt;/li&gt;&lt;/ul&gt;&lt;div&gt;Example&lt;/div&gt;&lt;div&gt;&lt;br&gt;&lt;/div&gt;&lt;div&gt;Input: redShirtHeights = [5, 8, 1, 3, 4],&amp;nbsp;&lt;span style=&quot;background-color: initial;&quot;&gt;blueShirtHeights = [6, 9, 2, 4, 6]&lt;/span&gt;&lt;/div&gt;&lt;div&gt;Output: true // place all students with blue shirts in the back row&lt;/div&gt;&lt;p&gt;&lt;/p&gt;" style="text;html=1;strokeColor=none;fillColor=none;spacing=5;spacingTop=-20;whiteSpace=wrap;overflow=hidden;rounded=0;" vertex="1" parent="1">
          <mxGeometry x="30" y="40" width="570" height="430" as="geometry" />
        </mxCell>
        <mxCell id="Bbwd_QznS_sV6y0Ex78K-2" value="&lt;h1&gt;Solution 1&lt;/h1&gt;&lt;p&gt;&lt;/p&gt;&lt;ul&gt;&lt;li&gt;Need to sort each array&lt;/li&gt;&lt;li&gt;We need to pick one of the arrays to be in the back&lt;/li&gt;&lt;li&gt;We want to have a pointer to each array&lt;/li&gt;&lt;li&gt;If at any time, the height of the student in the group that&#39;s supposed to be in the back is not taller than the student in front, return false&lt;/li&gt;&lt;/ul&gt;&lt;div&gt;&lt;br&gt;&lt;/div&gt;&lt;div&gt;From above example, sorted values are:&lt;/div&gt;&lt;div&gt;sortedRedShirtHeights = [1,3,4,5,8]&lt;/div&gt;&lt;div&gt;sortedBlueShirtHeights = [2,4,5,6,9]&lt;/div&gt;&lt;div&gt;2 &amp;gt; 1? Yes&lt;/div&gt;&lt;div&gt;4 &amp;gt; 3? Yes&lt;/div&gt;&lt;div&gt;5 &amp;gt; 4? Yes&lt;/div&gt;&lt;div&gt;6 &amp;gt; 5? Yes&lt;/div&gt;&lt;div&gt;9 &amp;gt; 8? Yes&lt;/div&gt;&lt;div&gt;So result is true&lt;/div&gt;&lt;div&gt;&lt;br&gt;&lt;/div&gt;&lt;div&gt;&lt;br&gt;&lt;/div&gt;&lt;p&gt;&lt;/p&gt;" style="text;html=1;strokeColor=none;fillColor=none;spacing=5;spacingTop=-20;whiteSpace=wrap;overflow=hidden;rounded=0;" vertex="1" parent="1">
          <mxGeometry x="30" y="510" width="560" height="300" as="geometry" />
        </mxCell>
      </root>
    </mxGraphModel>
  </diagram>
</mxfile>
